<svg enable-background="new 0 0 128 128" version="1.1" viewBox="0 0 104 104" xmlns="http://www.w3.org/2000/svg"><g fill="none" stroke-linecap="round" stroke-linejoin="round" stroke-miterlimit="10" stroke-width="4"><path d="m45.999 49.555c-7.1595-1.5367-13.047-6.9284-15.068-14.202l-5.9314-21.353"/><path d="m58 14h-36c-2.2091 0-4-1.7909-4-4v-4c0-2.2091 1.7909-4 4-4h60c2.2091 0 4 1.7909 4 4v4c0 1.8637-1.2746 3.4297-2.9996 3.8739l-4.0004 0.12612-5.9314 21.353c-1.9858 7.1489-7.7072 12.48-14.7 14.12"/><line x1="70" x2="67" y1="14" y2="14"/><path d="m59.008 54.689c6.7007 1.8073 12.136 7.0287 14.061 13.958l5.9314 21.353"/><path d="m25 90 5.9314-21.353c2.0206-7.2742 7.9089-12.666 15.069-14.202"/><path d="m22 90h60c2.2091 0 4 1.7909 4 4v4c0 2.2091-1.7909 4-4 4h-60c-2.2091 0-4-1.7909-4-4v-4c0-1.8637 1.2746-3.4297 2.9996-3.8739z"/><line x1="46" x2="46" y1="60" y2="46"/><line x1="58" x2="58" y1="43" y2="56"/></g></svg>
